<mxfile host="Electron" agent="Mozilla/5.0 (Windows NT 10.0; Win64; x64) AppleWebKit/537.36 (KHTML, like Gecko) draw.io/26.2.2 Chrome/134.0.6998.178 Electron/35.1.2 Safari/537.36" version="26.2.2">
  <diagram name="Page-1" id="BCyGX7Vh7aHbZw_-0Xlk">
    <mxGraphModel dx="1478" dy="679" grid="1" gridSize="10" guides="1" tooltips="1" connect="1" arrows="1" fold="1" page="1" pageScale="1" pageWidth="1920" pageHeight="1200" math="0" shadow="0">
      <root>
        <mxCell id="0" />
        <mxCell id="1" parent="0" />
        <mxCell id="HTWQZofyZN2HBWvVffWb-1" value="" style="rounded=0;whiteSpace=wrap;html=1;fillColor=none;dashed=1;strokeColor=light-dark(#a09898, #ededed);" vertex="1" parent="1">
          <mxGeometry x="360" y="340" width="140" height="480" as="geometry" />
        </mxCell>
        <mxCell id="HTWQZofyZN2HBWvVffWb-2" value="sources" style="rounded=0;whiteSpace=wrap;fontSize=20;strokeColor=none;html=1;" vertex="1" parent="1">
          <mxGeometry x="395" y="320" width="90" height="30" as="geometry" />
        </mxCell>
        <mxCell id="HTWQZofyZN2HBWvVffWb-4" value="" style="rounded=0;whiteSpace=wrap;html=1;fillColor=none;dashed=1;strokeColor=light-dark(#a09898, #ededed);" vertex="1" parent="1">
          <mxGeometry x="580" y="340" width="760" height="480" as="geometry" />
        </mxCell>
        <mxCell id="HTWQZofyZN2HBWvVffWb-5" value="Data Warehouse" style="rounded=0;whiteSpace=wrap;fontSize=20;strokeColor=none;html=1;" vertex="1" parent="1">
          <mxGeometry x="882.5" y="320" width="155" height="30" as="geometry" />
        </mxCell>
        <mxCell id="HTWQZofyZN2HBWvVffWb-7" value="" style="rounded=0;whiteSpace=wrap;html=1;fillColor=none;dashed=1;strokeColor=light-dark(#a09898, #ededed);" vertex="1" parent="1">
          <mxGeometry x="1420" y="340" width="160" height="480" as="geometry" />
        </mxCell>
        <mxCell id="HTWQZofyZN2HBWvVffWb-8" value="Consume" style="rounded=0;whiteSpace=wrap;fontSize=20;strokeColor=none;html=1;" vertex="1" parent="1">
          <mxGeometry x="1455" y="320" width="90" height="30" as="geometry" />
        </mxCell>
        <mxCell id="HTWQZofyZN2HBWvVffWb-15" value="" style="rounded=0;whiteSpace=wrap;html=1;fillColor=none;strokeColor=#d6b656;" vertex="1" parent="1">
          <mxGeometry x="620" y="400" width="160" height="380" as="geometry" />
        </mxCell>
        <mxCell id="HTWQZofyZN2HBWvVffWb-16" value="&lt;b&gt;Silver Layer&lt;/b&gt;" style="rounded=0;whiteSpace=wrap;html=1;fillColor=#eeeeee;strokeColor=#36393d;" vertex="1" parent="1">
          <mxGeometry x="860" y="360" width="200" height="30" as="geometry" />
        </mxCell>
        <mxCell id="HTWQZofyZN2HBWvVffWb-17" value="" style="rounded=0;whiteSpace=wrap;html=1;fillColor=none;strokeColor=#666666;gradientColor=#b3b3b3;" vertex="1" parent="1">
          <mxGeometry x="860" y="400" width="200" height="380" as="geometry" />
        </mxCell>
        <mxCell id="HTWQZofyZN2HBWvVffWb-18" value="&lt;b&gt;Gold Layer&lt;/b&gt;" style="rounded=0;whiteSpace=wrap;html=1;fillColor=#f0a30a;strokeColor=#BD7000;fontColor=#000000;" vertex="1" parent="1">
          <mxGeometry x="1140" y="360" width="160" height="30" as="geometry" />
        </mxCell>
        <mxCell id="HTWQZofyZN2HBWvVffWb-19" value="" style="rounded=0;whiteSpace=wrap;html=1;fillColor=none;strokeColor=#BD7000;fontColor=#000000;" vertex="1" parent="1">
          <mxGeometry x="1140" y="400" width="160" height="380" as="geometry" />
        </mxCell>
        <mxCell id="HTWQZofyZN2HBWvVffWb-20" value="&lt;b&gt;CRM&lt;/b&gt;" style="image;aspect=fixed;html=1;points=[];align=center;fontSize=12;image=img/lib/azure2/general/Folder_Blank.svg;" vertex="1" parent="1">
          <mxGeometry x="410" y="380" width="54" height="43.83" as="geometry" />
        </mxCell>
        <mxCell id="HTWQZofyZN2HBWvVffWb-21" value="" style="image;aspect=fixed;html=1;points=[];align=center;fontSize=12;image=img/lib/azure2/general/File.svg;" vertex="1" parent="1">
          <mxGeometry x="450" y="400" width="24.35" height="30" as="geometry" />
        </mxCell>
        <mxCell id="HTWQZofyZN2HBWvVffWb-22" value="&lt;b&gt;ERP&lt;/b&gt;" style="image;aspect=fixed;html=1;points=[];align=center;fontSize=12;image=img/lib/azure2/general/Folder_Blank.svg;" vertex="1" parent="1">
          <mxGeometry x="410" y="495" width="54" height="43.83" as="geometry" />
        </mxCell>
        <mxCell id="HTWQZofyZN2HBWvVffWb-23" value="" style="image;aspect=fixed;html=1;points=[];align=center;fontSize=12;image=img/lib/azure2/general/File.svg;" vertex="1" parent="1">
          <mxGeometry x="450" y="515.96" width="24.35" height="30" as="geometry" />
        </mxCell>
        <mxCell id="HTWQZofyZN2HBWvVffWb-29" value="&lt;b&gt;Objective Type&lt;/b&gt;: CSV Files&lt;div&gt;&lt;br&gt;&lt;div&gt;&lt;b&gt;Interface&lt;/b&gt;: Files in Folder&lt;/div&gt;&lt;/div&gt;" style="text;html=1;align=left;verticalAlign=middle;whiteSpace=wrap;rounded=0;" vertex="1" parent="1">
          <mxGeometry x="370" y="635" width="120" height="50" as="geometry" />
        </mxCell>
        <mxCell id="HTWQZofyZN2HBWvVffWb-31" value="" style="endArrow=none;html=1;rounded=0;entryX=1;entryY=0.667;entryDx=0;entryDy=0;entryPerimeter=0;fillColor=#eeeeee;strokeColor=#36393d;" edge="1" parent="1">
          <mxGeometry width="50" height="50" relative="1" as="geometry">
            <mxPoint x="380" y="599.5" as="sourcePoint" />
            <mxPoint x="490" y="599.6600000000001" as="targetPoint" />
          </mxGeometry>
        </mxCell>
        <mxCell id="HTWQZofyZN2HBWvVffWb-32" value="" style="html=1;verticalLabelPosition=bottom;align=center;labelBackgroundColor=#ffffff;verticalAlign=top;strokeWidth=2;shadow=0;dashed=0;shape=mxgraph.ios7.icons.data;fillColor=#fff2cc;strokeColor=#d6b656;" vertex="1" parent="1">
          <mxGeometry x="675" y="426.53999999999996" width="50" height="55" as="geometry" />
        </mxCell>
        <mxCell id="HTWQZofyZN2HBWvVffWb-33" value="" style="html=1;verticalLabelPosition=bottom;align=center;labelBackgroundColor=#ffffff;verticalAlign=top;strokeWidth=2;shadow=0;dashed=0;shape=mxgraph.ios7.icons.data;fillColor=#eeeeee;strokeColor=#36393d;" vertex="1" parent="1">
          <mxGeometry x="935" y="430" width="50" height="51.54" as="geometry" />
        </mxCell>
        <mxCell id="HTWQZofyZN2HBWvVffWb-34" value="" style="html=1;verticalLabelPosition=bottom;align=center;labelBackgroundColor=#ffffff;verticalAlign=top;strokeWidth=2;shadow=0;dashed=0;shape=mxgraph.ios7.icons.data;fillColor=#f0a30a;strokeColor=#BD7000;fontColor=#000000;" vertex="1" parent="1">
          <mxGeometry x="1195" y="430" width="50" height="51.54" as="geometry" />
        </mxCell>
        <mxCell id="HTWQZofyZN2HBWvVffWb-35" value="" style="shape=mxgraph.arrows.arrow_right;html=1;verticalLabelPosition=bottom;verticalAlign=top;strokeWidth=2;strokeColor=#10739e;fillColor=#b1ddf0;" vertex="1" parent="1">
          <mxGeometry x="500" y="470" width="80" height="20" as="geometry" />
        </mxCell>
        <mxCell id="HTWQZofyZN2HBWvVffWb-40" value="" style="shape=mxgraph.arrows.arrow_right;html=1;verticalLabelPosition=bottom;verticalAlign=top;strokeWidth=2;strokeColor=#10739e;fillColor=#b1ddf0;" vertex="1" parent="1">
          <mxGeometry x="1060" y="470" width="80" height="20" as="geometry" />
        </mxCell>
        <mxCell id="HTWQZofyZN2HBWvVffWb-41" value="" style="shape=mxgraph.arrows.arrow_right;html=1;verticalLabelPosition=bottom;verticalAlign=top;strokeWidth=2;strokeColor=#10739e;fillColor=#b1ddf0;" vertex="1" parent="1">
          <mxGeometry x="770" y="470" width="80" height="20" as="geometry" />
        </mxCell>
        <mxCell id="HTWQZofyZN2HBWvVffWb-42" value="" style="shape=mxgraph.arrows.arrow_right;html=1;verticalLabelPosition=bottom;verticalAlign=top;strokeWidth=2;strokeColor=#10739e;fillColor=#b1ddf0;" vertex="1" parent="1">
          <mxGeometry x="1340" y="470" width="80" height="20" as="geometry" />
        </mxCell>
        <mxCell id="HTWQZofyZN2HBWvVffWb-43" value="Raw Data" style="text;html=1;align=center;verticalAlign=middle;whiteSpace=wrap;rounded=0;" vertex="1" parent="1">
          <mxGeometry x="670" y="490" width="60" height="30" as="geometry" />
        </mxCell>
        <mxCell id="HTWQZofyZN2HBWvVffWb-44" value="Cleaned, Standardized Data" style="text;html=1;align=center;verticalAlign=middle;whiteSpace=wrap;rounded=0;" vertex="1" parent="1">
          <mxGeometry x="905" y="494.22" width="110" height="30" as="geometry" />
        </mxCell>
        <mxCell id="HTWQZofyZN2HBWvVffWb-45" value="Business Ready Data" style="text;html=1;align=center;verticalAlign=middle;whiteSpace=wrap;rounded=0;" vertex="1" parent="1">
          <mxGeometry x="1170" y="495" width="100" height="30" as="geometry" />
        </mxCell>
        <mxCell id="HTWQZofyZN2HBWvVffWb-47" value="" style="endArrow=none;html=1;rounded=0;fillColor=#ffe6cc;strokeColor=#d79b00;exitX=0.063;exitY=0.343;exitDx=0;exitDy=0;exitPerimeter=0;" edge="1" parent="1">
          <mxGeometry width="50" height="50" relative="1" as="geometry">
            <mxPoint x="640.04" y="530.8000000000001" as="sourcePoint" />
            <mxPoint x="759.96" y="530.46" as="targetPoint" />
          </mxGeometry>
        </mxCell>
        <mxCell id="HTWQZofyZN2HBWvVffWb-48" value="" style="endArrow=none;html=1;rounded=0;fillColor=#f0a30a;strokeColor=#BD7000;" edge="1" parent="1">
          <mxGeometry width="50" height="50" relative="1" as="geometry">
            <mxPoint x="1170" y="530" as="sourcePoint" />
            <mxPoint x="1265" y="530.46" as="targetPoint" />
          </mxGeometry>
        </mxCell>
        <mxCell id="HTWQZofyZN2HBWvVffWb-49" value="" style="endArrow=none;html=1;rounded=0;fillColor=#f5f5f5;strokeColor=#666666;" edge="1" parent="1">
          <mxGeometry width="50" height="50" relative="1" as="geometry">
            <mxPoint x="915" y="530.46" as="sourcePoint" />
            <mxPoint x="1005" y="530.46" as="targetPoint" />
          </mxGeometry>
        </mxCell>
        <mxCell id="HTWQZofyZN2HBWvVffWb-51" value="&lt;b&gt;Objective Type&lt;/b&gt;: Tables&lt;div&gt;&lt;b&gt;Load&lt;/b&gt;:&lt;/div&gt;&lt;div&gt;&lt;ul&gt;&lt;li&gt;Batch Processing&lt;/li&gt;&lt;li&gt;Full Load&lt;/li&gt;&lt;li&gt;Truncate &amp;amp; Insert&lt;/li&gt;&lt;/ul&gt;&lt;/div&gt;&lt;div&gt;&lt;div&gt;&lt;b&gt;Transformations:&lt;/b&gt;&lt;/div&gt;&lt;div&gt;&lt;ul&gt;&lt;li&gt;Data Cleaning&lt;/li&gt;&lt;li&gt;Data Standrization&lt;/li&gt;&lt;li&gt;Data Normalization&lt;/li&gt;&lt;li&gt;Derived Columns&lt;/li&gt;&lt;li&gt;Data Enrichment&lt;/li&gt;&lt;/ul&gt;&lt;/div&gt;&lt;div&gt;&lt;b&gt;Data Model&lt;/b&gt;: None (as-is)&lt;/div&gt;&lt;/div&gt;" style="text;html=1;align=left;verticalAlign=middle;whiteSpace=wrap;rounded=0;" vertex="1" parent="1">
          <mxGeometry x="870" y="540" width="180" height="230" as="geometry" />
        </mxCell>
        <mxCell id="HTWQZofyZN2HBWvVffWb-52" value="&lt;b&gt;Objective Type&lt;/b&gt;: Views&lt;div&gt;&lt;b&gt;No Load&lt;/b&gt;&lt;/div&gt;&lt;div&gt;&lt;b&gt;Transformations:&lt;/b&gt;&lt;/div&gt;&lt;div&gt;&lt;ul&gt;&lt;li&gt;Data Integrations&lt;/li&gt;&lt;li&gt;Aggregations&lt;/li&gt;&lt;li&gt;Business Logics&lt;/li&gt;&lt;/ul&gt;&lt;/div&gt;&lt;div&gt;&lt;div&gt;&lt;b&gt;Data Model:&lt;/b&gt;&lt;/div&gt;&lt;div&gt;&lt;ul&gt;&lt;li&gt;Star Schema&lt;/li&gt;&lt;li&gt;Flat Table&lt;/li&gt;&lt;li&gt;Aggregated Table&lt;/li&gt;&lt;/ul&gt;&lt;/div&gt;&lt;/div&gt;" style="text;html=1;align=left;verticalAlign=middle;whiteSpace=wrap;rounded=0;" vertex="1" parent="1">
          <mxGeometry x="1150" y="550" width="140" height="220" as="geometry" />
        </mxCell>
        <mxCell id="HTWQZofyZN2HBWvVffWb-53" value="&lt;b&gt;Objective Type&lt;/b&gt;: Tables&lt;div&gt;&lt;br&gt;&lt;/div&gt;&lt;div&gt;&lt;b&gt;Load&lt;/b&gt;:&lt;/div&gt;&lt;div&gt;&lt;ul&gt;&lt;li&gt;Batch Processing&lt;/li&gt;&lt;li&gt;Full Load&lt;/li&gt;&lt;li&gt;Truncate &amp;amp; Insert&lt;/li&gt;&lt;/ul&gt;&lt;div&gt;&lt;b&gt;No Transformations&lt;/b&gt;&lt;/div&gt;&lt;div&gt;&lt;b&gt;&lt;br&gt;&lt;/b&gt;&lt;div&gt;&lt;b&gt;Data Model&lt;/b&gt;: None (as-is)&lt;/div&gt;&lt;/div&gt;&lt;/div&gt;" style="text;html=1;align=left;verticalAlign=middle;whiteSpace=wrap;rounded=0;" vertex="1" parent="1">
          <mxGeometry x="630" y="550" width="140" height="220" as="geometry" />
        </mxCell>
        <mxCell id="HTWQZofyZN2HBWvVffWb-59" value="&lt;b&gt;Bronze Layer&lt;/b&gt;" style="rounded=0;whiteSpace=wrap;html=1;fillColor=#fff2cc;strokeColor=#d6b656;" vertex="1" parent="1">
          <mxGeometry x="620" y="360" width="160" height="30" as="geometry" />
        </mxCell>
        <mxCell id="HTWQZofyZN2HBWvVffWb-66" value="&lt;b&gt;BI &amp;amp; Reporting&lt;/b&gt;" style="image;aspect=fixed;html=1;points=[];align=center;fontSize=12;image=img/lib/azure2/power_platform/PowerBI.svg;" vertex="1" parent="1">
          <mxGeometry x="1481.25" y="380" width="37.5" height="50" as="geometry" />
        </mxCell>
        <mxCell id="HTWQZofyZN2HBWvVffWb-67" value="&lt;b&gt;Ad-Hoc&lt;/b&gt;&lt;div&gt;&lt;b&gt;SQL Queries&lt;/b&gt;&lt;/div&gt;" style="sketch=0;html=1;aspect=fixed;strokeColor=none;shadow=0;fillColor=#3B8DF1;verticalAlign=top;labelPosition=center;verticalLabelPosition=bottom;shape=mxgraph.gcp2.big_query" vertex="1" parent="1">
          <mxGeometry x="1478.22" y="520" width="43.56" height="44" as="geometry" />
        </mxCell>
        <mxCell id="HTWQZofyZN2HBWvVffWb-68" value="&lt;b&gt;Machine Learning&lt;/b&gt;" style="outlineConnect=0;dashed=0;verticalLabelPosition=bottom;verticalAlign=top;align=center;html=1;shape=mxgraph.aws3.machine_learning;fillColor=#2E73B8;gradientColor=none;" vertex="1" parent="1">
          <mxGeometry x="1474.5" y="660" width="51" height="63" as="geometry" />
        </mxCell>
        <mxCell id="HTWQZofyZN2HBWvVffWb-70" value="" style="image;sketch=0;aspect=fixed;html=1;points=[];align=center;fontSize=12;image=img/lib/mscae/SQL_Servers.svg;" vertex="1" parent="1">
          <mxGeometry x="560" y="300" width="50" height="50" as="geometry" />
        </mxCell>
      </root>
    </mxGraphModel>
  </diagram>
</mxfile>
